<svg width="30" height="30" viewBox="0 0 30 30" fill="none" xmlns="http://www.w3.org/2000/svg">
<g clip-path="url(#clip0)">
<path d="M29.3629 11.243H1.85261C1.50748 11.243 1.22736 11.5232 1.22736 11.8683V26.8739C1.22736 28.597 2.62915 30 4.3535 30H26.8619C28.5863 30 29.988 28.597 29.988 26.8739V11.8683C29.9881 11.5231 29.708 11.243 29.3629 11.243ZM28.7376 26.8738C28.7376 27.908 27.8961 28.7495 26.8619 28.7495H4.35356C3.3194 28.7495 2.47786 27.908 2.47786 26.8738V12.4935H28.7376V26.8738Z" fill="white"/>
<path d="M29.9681 5.45711L28.9039 1.41939C28.6588 0.437752 27.656 -0.178707 26.6619 0.0463762L1.46997 6.02357C0.97479 6.13612 0.555865 6.43746 0.289516 6.87016C0.0231675 7.3028 -0.0556117 7.81299 0.0694152 8.30817L1.24735 12.9649C1.3174 13.2475 1.57249 13.4363 1.85256 13.4363C1.90256 13.4363 1.95384 13.4313 2.0076 13.4176C2.34147 13.3338 2.54404 12.9937 2.45899 12.6586L2.39024 12.3872L29.5015 6.22744C29.6666 6.18869 29.8104 6.08612 29.898 5.9411C29.9868 5.79603 30.0106 5.62094 29.9681 5.45711ZM2.08397 11.1742L1.28117 8.00431C1.23991 7.83925 1.2674 7.66921 1.35497 7.52413C1.44377 7.38035 1.58381 7.28029 1.75385 7.24026L26.9457 1.26435C26.9907 1.25309 27.0369 1.24811 27.082 1.24811C27.3621 1.24811 27.6209 1.44066 27.6922 1.72952L28.5938 5.14956L2.08397 11.1742Z" fill="white"/>
<path d="M7.13458 11.308C6.82444 11.1567 6.45182 11.2793 6.29427 11.5882L3.79332 16.59C3.63951 16.8988 3.76454 17.274 4.07344 17.4291C4.16471 17.4741 4.25978 17.4954 4.35356 17.4954C4.5824 17.4954 4.80373 17.3691 4.91375 17.149L7.4147 12.1472C7.56851 11.8382 7.44342 11.4631 7.13458 11.308Z" fill="white"/>
<path d="M13.3857 11.308C13.0768 11.1567 12.7017 11.2793 12.5466 11.5882L10.0456 16.59C9.89183 16.8988 10.0169 17.274 10.3258 17.4291C10.417 17.4741 10.5121 17.4954 10.6059 17.4954C10.8347 17.4954 11.0561 17.3691 11.1648 17.149L13.6658 12.1472C13.8195 11.8382 13.6945 11.4631 13.3857 11.308Z" fill="white"/>
<path d="M19.6379 11.308C19.3303 11.1567 18.9552 11.2793 18.7988 11.5882L16.2979 16.59C16.1441 16.8988 16.2691 17.274 16.578 17.4291C16.6693 17.4741 16.7644 17.4954 16.8581 17.4954C17.087 17.4954 17.3083 17.3691 17.4171 17.149L19.918 12.1472C20.0718 11.8382 19.9468 11.4631 19.6379 11.308Z" fill="white"/>
<path d="M25.8903 11.308C25.5802 11.1567 25.2076 11.2793 25.0512 11.5882L22.5503 16.59C22.3965 16.8988 22.5215 17.274 22.8304 17.4291C22.9217 17.4741 23.0167 17.4954 23.1105 17.4954C23.3394 17.4954 23.5607 17.3691 23.6695 17.149L26.1704 12.1472C26.3242 11.8382 26.1992 11.4631 25.8903 11.308Z" fill="white"/>
<path d="M29.3629 16.2449H1.85261C1.50748 16.2449 1.22736 16.525 1.22736 16.8701C1.22736 17.2153 1.50748 17.4954 1.85261 17.4954H29.3629C29.7092 17.4954 29.9881 17.2153 29.9881 16.8701C29.9881 16.525 29.708 16.2449 29.3629 16.2449Z" fill="white"/>
<path d="M7.8986 10.1514L3.592 5.84478C3.34816 5.60094 2.95175 5.60094 2.7079 5.84478C2.46406 6.08862 2.46406 6.48503 2.7079 6.72887L7.0145 11.0367C7.13707 11.158 7.29709 11.2193 7.45717 11.2193C7.61724 11.2193 7.77727 11.158 7.8986 11.0355C8.14244 10.7916 8.14244 10.3952 7.8986 10.1514Z" fill="white"/>
<path d="M14.0158 8.76208L9.70553 4.45548C9.46169 4.21164 9.06527 4.21164 8.82143 4.45548C8.57759 4.69932 8.57759 5.09574 8.82143 5.33958L13.1305 9.64617C13.2531 9.76745 13.4131 9.82876 13.5732 9.82876C13.7333 9.82876 13.8933 9.76751 14.0159 9.64617C14.2597 9.40233 14.2597 9.00592 14.0158 8.76208Z" fill="white"/>
<path d="M20.1282 7.37284L15.8253 3.06501C15.5815 2.82117 15.1851 2.82117 14.9412 3.06501C14.6974 3.30885 14.6974 3.70526 14.9412 3.9491L19.2441 8.25693C19.3667 8.37821 19.5267 8.43952 19.6868 8.43952C19.8468 8.43952 20.0069 8.3795 20.1282 8.25693C20.372 8.01309 20.372 7.61668 20.1282 7.37284Z" fill="white"/>
<path d="M26.2379 5.98482L21.9338 1.67699C21.69 1.43315 21.2935 1.43315 21.0497 1.67699C20.8059 1.92083 20.8059 2.31725 21.0497 2.56109L25.3538 6.86892C25.4763 6.99019 25.6364 7.05151 25.7964 7.05151C25.9565 7.05151 26.1165 6.99025 26.2379 6.86892C26.4818 6.62508 26.4818 6.22866 26.2379 5.98482Z" fill="white"/>
</g>
<defs>
<clipPath id="clip0">
<rect width="30" height="30" fill="white"/>
</clipPath>
</defs>
</svg>
